name ./resultDataOpenSim/trcMotMarkerGrf/sub09/grf-14-07.mot
datacolumns 19
datarows 10
range 1.45200000 1.48800000
endheader

                time	     ground_force_vx	     ground_force_vy	     ground_force_vz	     ground_force_px	     ground_force_py	     ground_force_pz	   l_ground_force_vx	   l_ground_force_vy	   l_ground_force_vz	   l_ground_force_px	   l_ground_force_py	   l_ground_force_pz	     ground_torque_x	     ground_torque_y	     ground_torque_z	   l_ground_torque_x	   l_ground_torque_y	   l_ground_torque_z	
          1.45200000	        -39.12617657	        438.40069011	         -4.47839977	          1.14432448	          0.00000000	          0.06847021	          0.00000000	          0.00000000	          0.00000000	          0.00000000	          0.00000000	          0.00000000	          0.00000000	          2.27956271	          0.00000000	          0.00000000	          0.00000000	          0.00000000	
          1.45600000	        -35.75102667	        441.10977969	         -6.21148822	          1.14473746	          0.00000000	          0.06868688	          0.00000000	          0.00000000	          0.00000000	          0.00000000	          0.00000000	          0.00000000	          0.00000000	          1.97597534	          0.00000000	          0.00000000	          0.00000000	          0.00000000	
          1.46000000	        -32.46056130	        443.77892476	         -8.83363144	          1.14512356	          0.00000000	          0.06887426	          0.00000000	          0.00000000	          0.00000000	          0.00000000	          0.00000000	          0.00000000	          0.00000000	          1.54092530	          0.00000000	          0.00000000	          0.00000000	          0.00000000	
          1.46400000	        -29.85502412	        446.40158336	        -11.86402559	          1.14557184	          0.00000000	          0.06900699	          0.00000000	          0.00000000	          0.00000000	          0.00000000	          0.00000000	          0.00000000	          0.00000000	          1.05676553	          0.00000000	          0.00000000	          0.00000000	          0.00000000	
          1.46800000	        -28.32568417	        448.97025522	        -14.72079872	          1.14615288	          0.00000000	          0.06905804	          0.00000000	          0.00000000	          0.00000000	          0.00000000	          0.00000000	          0.00000000	          0.00000000	          0.61597672	          0.00000000	          0.00000000	          0.00000000	          0.00000000	
          1.47200000	        -27.95405232	        451.47425180	        -16.83386888	          1.14689675	          0.00000000	          0.06899834	          0.00000000	          0.00000000	          0.00000000	          0.00000000	          0.00000000	          0.00000000	          0.00000000	          0.30273046	          0.00000000	          0.00000000	          0.00000000	          0.00000000	
          1.47600000	        -28.50019066	        453.90888475	        -17.74725091	          1.14778753	          0.00000000	          0.06881079	          0.00000000	          0.00000000	          0.00000000	          0.00000000	          0.00000000	          0.00000000	          0.00000000	          0.17794885	          0.00000000	          0.00000000	          0.00000000	          0.00000000	
          1.48000000	        -29.47945146	        456.28816576	        -17.18820627	          1.14875418	          0.00000000	          0.06849370	          0.00000000	          0.00000000	          0.00000000	          0.00000000	          0.00000000	          0.00000000	          0.00000000	          0.27052769	          0.00000000	          0.00000000	          0.00000000	          0.00000000	
          1.48400000	        -30.30361098	        458.65236795	        -15.10565461	          1.14970172	          0.00000000	          0.06806136	          0.00000000	          0.00000000	          0.00000000	          0.00000000	          0.00000000	          0.00000000	          0.00000000	          0.57509649	          0.00000000	          0.00000000	          0.00000000	          0.00000000	
          1.48800000	        -30.44647875	        461.06303490	        -11.68149847	          1.15052486	          0.00000000	          0.06754143	          0.00000000	          0.00000000	          0.00000000	          0.00000000	          0.00000000	          0.00000000	          0.00000000	          1.05512963	          0.00000000	          0.00000000	          0.00000000	          0.00000000	
